<svg width="138" height="18" viewBox="0 0 138 18" fill="none" xmlns="http://www.w3.org/2000/svg">
<path d="M16.5046 7.36788H15.8333V7.33329H8.33333V10.6666H13.0429C12.3558 12.607 10.5096 14 8.33333 14C5.57208 14 3.33333 11.7612 3.33333 8.99996C3.33333 6.23871 5.57208 3.99996 8.33333 3.99996C9.60792 3.99996 10.7675 4.48079 11.6504 5.26621L14.0075 2.90913C12.5192 1.52204 10.5283 0.666626 8.33333 0.666626C3.73125 0.666626 0 4.39788 0 8.99996C0 13.602 3.73125 17.3333 8.33333 17.3333C12.9354 17.3333 16.6667 13.602 16.6667 8.99996C16.6667 8.44121 16.6092 7.89579 16.5046 7.36788Z" fill="#FBC02D"/>
<path d="M0.960815 5.12121L3.69873 7.12913C4.43957 5.29496 6.23373 3.99996 8.33332 3.99996C9.6079 3.99996 10.7675 4.48079 11.6504 5.26621L14.0075 2.90913C12.5191 1.52204 10.5283 0.666626 8.33332 0.666626C5.13248 0.666626 2.35665 2.47371 0.960815 5.12121Z" fill="#E53935"/>
<path d="M8.33342 17.3334C10.4859 17.3334 12.4418 16.5096 13.9205 15.17L11.3413 12.9875C10.5047 13.6213 9.46467 14 8.33342 14C6.16592 14 4.32551 12.618 3.63217 10.6892L0.914673 12.783C2.29384 15.4817 5.09467 17.3334 8.33342 17.3334Z" fill="#4CAF50"/>
<path d="M16.5046 7.36796L16.498 7.33337H15.8334H8.33337V10.6667H13.043C12.713 11.5988 12.1134 12.4025 11.34 12.988L11.3413 12.9871L13.9205 15.1696C13.738 15.3355 16.6667 13.1667 16.6667 9.00004C16.6667 8.44129 16.6092 7.89587 16.5046 7.36796Z" fill="#1565C0"/>
<path d="M33.6 13.0234V14.5H28.5961V13.0234H33.6ZM29.1635 4.54688V14.5H27.2836V4.54688H29.1635ZM34.2498 10.877V10.7334C34.2498 10.1911 34.3273 9.69206 34.4822 9.23633C34.6371 8.77604 34.8627 8.37728 35.159 8.04004C35.4552 7.7028 35.8175 7.44076 36.2459 7.25391C36.6743 7.0625 37.1619 6.9668 37.7088 6.9668C38.2648 6.9668 38.7569 7.0625 39.1853 7.25391C39.6183 7.44076 39.9829 7.7028 40.2791 8.04004C40.5753 8.37728 40.8009 8.77604 40.9558 9.23633C41.1108 9.69206 41.1883 10.1911 41.1883 10.7334V10.877C41.1883 11.4147 41.1108 11.9137 40.9558 12.374C40.8009 12.8298 40.5753 13.2285 40.2791 13.5703C39.9829 13.9076 39.6205 14.1696 39.1922 14.3564C38.7638 14.5433 38.2739 14.6367 37.7224 14.6367C37.1756 14.6367 36.6857 14.5433 36.2527 14.3564C35.8198 14.1696 35.4552 13.9076 35.159 13.5703C34.8627 13.2285 34.6371 12.8298 34.4822 12.374C34.3273 11.9137 34.2498 11.4147 34.2498 10.877ZM36.0545 10.7334V10.877C36.0545 11.2005 36.0864 11.5036 36.1502 11.7861C36.214 12.0687 36.312 12.3171 36.4441 12.5312C36.5763 12.7454 36.7472 12.9141 36.9568 13.0371C37.171 13.1556 37.4262 13.2148 37.7224 13.2148C38.0141 13.2148 38.2648 13.1556 38.4744 13.0371C38.684 12.9141 38.8549 12.7454 38.9871 12.5312C39.1238 12.3171 39.2241 12.0687 39.2879 11.7861C39.3517 11.5036 39.3836 11.2005 39.3836 10.877V10.7334C39.3836 10.4144 39.3517 10.1159 39.2879 9.83789C39.2241 9.55534 39.1238 9.30697 38.9871 9.09277C38.8549 8.87402 38.6817 8.70312 38.4676 8.58008C38.2579 8.45247 38.005 8.38867 37.7088 8.38867C37.4171 8.38867 37.1664 8.45247 36.9568 8.58008C36.7472 8.70312 36.5763 8.87402 36.4441 9.09277C36.312 9.30697 36.214 9.55534 36.1502 9.83789C36.0864 10.1159 36.0545 10.4144 36.0545 10.7334ZM47.0539 7.10352H48.6945V14.2744C48.6945 14.9443 48.5487 15.5117 48.257 15.9766C47.9699 16.446 47.5666 16.8014 47.047 17.043C46.5275 17.2891 45.9237 17.4121 45.2355 17.4121C44.9393 17.4121 44.618 17.3711 44.2717 17.2891C43.9299 17.207 43.5995 17.0771 43.2804 16.8994C42.966 16.7262 42.7039 16.5007 42.4943 16.2227L43.3078 15.1562C43.5539 15.4434 43.8319 15.6598 44.1418 15.8057C44.4517 15.9561 44.7866 16.0312 45.1467 16.0312C45.5112 16.0312 45.8211 15.9629 46.0763 15.8262C46.3361 15.694 46.5344 15.498 46.6711 15.2383C46.8123 14.9831 46.883 14.6686 46.883 14.2949V8.79199L47.0539 7.10352ZM42.0568 10.8906V10.7471C42.0568 10.182 42.1252 9.66927 42.2619 9.20898C42.3986 8.74414 42.5946 8.34538 42.8498 8.0127C43.1095 7.68001 43.4217 7.42253 43.7863 7.24023C44.1554 7.05794 44.5702 6.9668 45.0304 6.9668C45.5181 6.9668 45.9282 7.05566 46.2609 7.2334C46.5982 7.41113 46.8761 7.66406 47.0949 7.99219C47.3182 8.32031 47.4914 8.70996 47.6144 9.16113C47.742 9.60775 47.84 10.0999 47.9084 10.6377V11.0273C47.8446 11.5514 47.742 12.0322 47.6008 12.4697C47.464 12.9072 47.2817 13.29 47.0539 13.6182C46.826 13.9417 46.5435 14.1924 46.2062 14.3701C45.869 14.5479 45.4725 14.6367 45.0168 14.6367C44.561 14.6367 44.1509 14.5433 43.7863 14.3564C43.4217 14.1696 43.1095 13.9076 42.8498 13.5703C42.5946 13.2331 42.3986 12.8366 42.2619 12.3809C42.1252 11.9251 42.0568 11.4284 42.0568 10.8906ZM43.8615 10.7471V10.8906C43.8615 11.2096 43.8934 11.5081 43.9572 11.7861C44.021 12.0641 44.119 12.3102 44.2511 12.5244C44.3833 12.734 44.5496 12.8981 44.7502 13.0166C44.9507 13.1351 45.1899 13.1943 45.4679 13.1943C45.8416 13.1943 46.147 13.1169 46.384 12.9619C46.6255 12.8024 46.8078 12.5859 46.9308 12.3125C47.0584 12.0345 47.1405 11.7223 47.1769 11.376V10.3027C47.1541 10.0293 47.104 9.77637 47.0265 9.54395C46.9536 9.31152 46.8511 9.111 46.7189 8.94238C46.5868 8.77376 46.4181 8.6416 46.2131 8.5459C46.008 8.4502 45.7642 8.40234 45.4816 8.40234C45.2082 8.40234 44.9689 8.46387 44.7638 8.58691C44.5588 8.7054 44.3901 8.87174 44.258 9.08594C44.1258 9.30013 44.0256 9.5485 43.9572 9.83105C43.8934 10.1136 43.8615 10.4189 43.8615 10.7471ZM52.0855 7.10352V14.5H50.274V7.10352H52.0855ZM50.151 5.16895C50.151 4.90007 50.2421 4.67676 50.4244 4.49902C50.6112 4.32129 50.8619 4.23242 51.1763 4.23242C51.4908 4.23242 51.7392 4.32129 51.9215 4.49902C52.1083 4.67676 52.2017 4.90007 52.2017 5.16895C52.2017 5.43327 52.1083 5.6543 51.9215 5.83203C51.7392 6.00977 51.4908 6.09863 51.1763 6.09863C50.8619 6.09863 50.6112 6.00977 50.4244 5.83203C50.2421 5.6543 50.151 5.43327 50.151 5.16895ZM55.4287 8.68262V14.5H53.624V7.10352H55.3193L55.4287 8.68262ZM55.1416 10.5352H54.6084C54.6129 9.9974 54.6858 9.50977 54.8271 9.07227C54.9684 8.63477 55.1666 8.25879 55.4219 7.94434C55.6816 7.62988 55.9892 7.38835 56.3447 7.21973C56.7002 7.05111 57.0967 6.9668 57.5342 6.9668C57.8896 6.9668 58.2109 7.01693 58.498 7.11719C58.7851 7.21745 59.0312 7.37695 59.2363 7.5957C59.4459 7.81445 59.6054 8.10156 59.7148 8.45703C59.8288 8.80794 59.8857 9.24089 59.8857 9.75586V14.5H58.0674V9.74219C58.0674 9.40495 58.0172 9.13835 57.917 8.94238C57.8213 8.74642 57.68 8.60742 57.4931 8.52539C57.3108 8.44336 57.0853 8.40234 56.8164 8.40234C56.5384 8.40234 56.2946 8.45931 56.0849 8.57324C55.8799 8.68262 55.7067 8.83529 55.5654 9.03125C55.4287 9.22721 55.3239 9.4528 55.251 9.70801C55.178 9.96322 55.1416 10.2389 55.1416 10.5352ZM66.7224 12.7227L68.3426 7.10352H69.491L69.1492 9.04492L67.5154 14.5H66.5242L66.7224 12.7227ZM65.8269 7.10352L67.0437 12.7363L67.1531 14.5H66.0115L64.0701 7.10352H65.8269ZM70.9949 12.6543L72.1843 7.10352H73.9343L72.0066 14.5H70.865L70.9949 12.6543ZM69.6687 7.10352L71.2752 12.668L71.4871 14.5H70.4959L68.8484 9.04492L68.5135 7.10352H69.6687ZM76.7648 7.10352V14.5H74.9533V7.10352H76.7648ZM74.8302 5.16895C74.8302 4.90007 74.9214 4.67676 75.1037 4.49902C75.2905 4.32129 75.5412 4.23242 75.8556 4.23242C76.1701 4.23242 76.4185 4.32129 76.6008 4.49902C76.7876 4.67676 76.881 4.90007 76.881 5.16895C76.881 5.43327 76.7876 5.6543 76.6008 5.83203C76.4185 6.00977 76.1701 6.09863 75.8556 6.09863C75.5412 6.09863 75.2905 6.00977 75.1037 5.83203C74.9214 5.6543 74.8302 5.43327 74.8302 5.16895ZM81.8375 7.10352V8.40234H77.5992V7.10352H81.8375ZM78.734 5.28516H80.5455V12.3672C80.5455 12.5859 80.5751 12.7546 80.6343 12.873C80.6936 12.9915 80.7825 13.0713 80.901 13.1123C81.0194 13.1533 81.1607 13.1738 81.3248 13.1738C81.4433 13.1738 81.5526 13.167 81.6529 13.1533C81.7532 13.1396 81.8375 13.126 81.9058 13.1123L81.9127 14.4658C81.7623 14.516 81.5914 14.557 81.4 14.5889C81.2131 14.6208 81.0012 14.6367 80.7642 14.6367C80.3586 14.6367 80.0032 14.5684 79.6978 14.4316C79.3925 14.2904 79.1555 14.0648 78.9869 13.7549C78.8183 13.4404 78.734 13.0257 78.734 12.5107V5.28516ZM84.6611 4V14.5H82.8496V4H84.6611ZM84.374 10.5352H83.8408C83.8408 10.0202 83.9092 9.54622 84.0459 9.11328C84.1826 8.68034 84.3763 8.30436 84.6269 7.98535C84.8776 7.66178 85.1761 7.41113 85.5224 7.2334C85.8733 7.05566 86.2607 6.9668 86.6845 6.9668C87.0491 6.9668 87.3795 7.01921 87.6758 7.12402C87.9765 7.22428 88.234 7.38607 88.4482 7.60938C88.6624 7.83268 88.8265 8.12435 88.9404 8.48438C89.0589 8.83984 89.1181 9.27279 89.1181 9.7832V14.5H87.2998V9.76953C87.2998 9.42773 87.2497 9.15885 87.1494 8.96289C87.0491 8.76237 86.9056 8.61882 86.7187 8.53223C86.5364 8.44564 86.3108 8.40234 86.042 8.40234C85.7503 8.40234 85.4997 8.45931 85.29 8.57324C85.0804 8.68262 84.9072 8.83529 84.7705 9.03125C84.6383 9.22721 84.5381 9.4528 84.4697 9.70801C84.4059 9.96322 84.374 10.2389 84.374 10.5352ZM101.8 9.35254V13.2285C101.654 13.4154 101.424 13.6182 101.109 13.8369C100.799 14.0557 100.394 14.2448 99.8924 14.4043C99.3911 14.5592 98.7758 14.6367 98.0467 14.6367C97.4132 14.6367 96.8344 14.5319 96.3103 14.3223C95.7862 14.1081 95.3351 13.7959 94.9568 13.3857C94.5786 12.9756 94.2869 12.4743 94.0818 11.8818C93.8767 11.2894 93.7742 10.6126 93.7742 9.85156V9.19531C93.7742 8.43424 93.8699 7.75749 94.0613 7.16504C94.2573 6.57259 94.5353 6.07129 94.8953 5.66113C95.2599 5.25098 95.6951 4.9388 96.201 4.72461C96.7114 4.51042 97.281 4.40332 97.9099 4.40332C98.753 4.40332 99.4457 4.54232 99.9881 4.82031C100.535 5.09831 100.954 5.48112 101.246 5.96875C101.538 6.45182 101.72 7.00781 101.793 7.63672H99.9607C99.9106 7.29036 99.8103 6.9873 99.6599 6.72754C99.5095 6.46322 99.2954 6.25814 99.0174 6.1123C98.7439 5.96191 98.3885 5.88672 97.951 5.88672C97.5818 5.88672 97.256 5.95964 96.9734 6.10547C96.6909 6.2513 96.4539 6.46322 96.2625 6.74121C96.0711 7.01921 95.9252 7.36328 95.825 7.77344C95.7293 8.18359 95.6814 8.65299 95.6814 9.18164V9.85156C95.6814 10.3848 95.7361 10.8587 95.8455 11.2734C95.9549 11.6836 96.1121 12.0299 96.3172 12.3125C96.5268 12.5905 96.7843 12.8024 97.0896 12.9482C97.3995 13.0895 97.7504 13.1602 98.1424 13.1602C98.4978 13.1602 98.7918 13.1305 99.0242 13.0713C99.2612 13.0075 99.4503 12.9323 99.5916 12.8457C99.7329 12.7591 99.8422 12.6748 99.9197 12.5928V10.7266H97.9441V9.35254H101.8ZM102.969 10.877V10.7334C102.969 10.1911 103.046 9.69206 103.201 9.23633C103.356 8.77604 103.582 8.37728 103.878 8.04004C104.174 7.7028 104.537 7.44076 104.965 7.25391C105.393 7.0625 105.881 6.9668 106.428 6.9668C106.984 6.9668 107.476 7.0625 107.904 7.25391C108.337 7.44076 108.702 7.7028 108.998 8.04004C109.294 8.37728 109.52 8.77604 109.675 9.23633C109.83 9.69206 109.907 10.1911 109.907 10.7334V10.877C109.907 11.4147 109.83 11.9137 109.675 12.374C109.52 12.8298 109.294 13.2285 108.998 13.5703C108.702 13.9076 108.34 14.1696 107.911 14.3564C107.483 14.5433 106.993 14.6367 106.442 14.6367C105.895 14.6367 105.405 14.5433 104.972 14.3564C104.539 14.1696 104.174 13.9076 103.878 13.5703C103.582 13.2285 103.356 12.8298 103.201 12.374C103.046 11.9137 102.969 11.4147 102.969 10.877ZM104.774 10.7334V10.877C104.774 11.2005 104.806 11.5036 104.869 11.7861C104.933 12.0687 105.031 12.3171 105.163 12.5312C105.295 12.7454 105.466 12.9141 105.676 13.0371C105.89 13.1556 106.145 13.2148 106.442 13.2148C106.733 13.2148 106.984 13.1556 107.194 13.0371C107.403 12.9141 107.574 12.7454 107.706 12.5312C107.843 12.3171 107.943 12.0687 108.007 11.7861C108.071 11.5036 108.103 11.2005 108.103 10.877V10.7334C108.103 10.4144 108.071 10.1159 108.007 9.83789C107.943 9.55534 107.843 9.30697 107.706 9.09277C107.574 8.87402 107.401 8.70312 107.187 8.58008C106.977 8.45247 106.724 8.38867 106.428 8.38867C106.136 8.38867 105.886 8.45247 105.676 8.58008C105.466 8.70312 105.295 8.87402 105.163 9.09277C105.031 9.30697 104.933 9.55534 104.869 9.83789C104.806 10.1159 104.774 10.4144 104.774 10.7334ZM110.749 10.877V10.7334C110.749 10.1911 110.826 9.69206 110.981 9.23633C111.136 8.77604 111.362 8.37728 111.658 8.04004C111.954 7.7028 112.316 7.44076 112.745 7.25391C113.173 7.0625 113.661 6.9668 114.208 6.9668C114.764 6.9668 115.256 7.0625 115.684 7.25391C116.117 7.44076 116.482 7.7028 116.778 8.04004C117.074 8.37728 117.3 8.77604 117.455 9.23633C117.61 9.69206 117.687 10.1911 117.687 10.7334V10.877C117.687 11.4147 117.61 11.9137 117.455 12.374C117.3 12.8298 117.074 13.2285 116.778 13.5703C116.482 13.9076 116.119 14.1696 115.691 14.3564C115.263 14.5433 114.773 14.6367 114.221 14.6367C113.674 14.6367 113.184 14.5433 112.752 14.3564C112.319 14.1696 111.954 13.9076 111.658 13.5703C111.362 13.2285 111.136 12.8298 110.981 12.374C110.826 11.9137 110.749 11.4147 110.749 10.877ZM112.553 10.7334V10.877C112.553 11.2005 112.585 11.5036 112.649 11.7861C112.713 12.0687 112.811 12.3171 112.943 12.5312C113.075 12.7454 113.246 12.9141 113.456 13.0371C113.67 13.1556 113.925 13.2148 114.221 13.2148C114.513 13.2148 114.764 13.1556 114.973 13.0371C115.183 12.9141 115.354 12.7454 115.486 12.5312C115.623 12.3171 115.723 12.0687 115.787 11.7861C115.85 11.5036 115.882 11.2005 115.882 10.877V10.7334C115.882 10.4144 115.85 10.1159 115.787 9.83789C115.723 9.55534 115.623 9.30697 115.486 9.09277C115.354 8.87402 115.181 8.70312 114.966 8.58008C114.757 8.45247 114.504 8.38867 114.208 8.38867C113.916 8.38867 113.665 8.45247 113.456 8.58008C113.246 8.70312 113.075 8.87402 112.943 9.09277C112.811 9.30697 112.713 9.55534 112.649 9.83789C112.585 10.1159 112.553 10.4144 112.553 10.7334ZM123.553 7.10352H125.193V14.2744C125.193 14.9443 125.048 15.5117 124.756 15.9766C124.469 16.446 124.065 16.8014 123.546 17.043C123.026 17.2891 122.423 17.4121 121.734 17.4121C121.438 17.4121 121.117 17.3711 120.77 17.2891C120.429 17.207 120.098 17.0771 119.779 16.8994C119.465 16.7262 119.203 16.5007 118.993 16.2227L119.807 15.1562C120.053 15.4434 120.331 15.6598 120.641 15.8057C120.95 15.9561 121.285 16.0312 121.645 16.0312C122.01 16.0312 122.32 15.9629 122.575 15.8262C122.835 15.694 123.033 15.498 123.17 15.2383C123.311 14.9831 123.382 14.6686 123.382 14.2949V8.79199L123.553 7.10352ZM118.556 10.8906V10.7471C118.556 10.182 118.624 9.66927 118.761 9.20898C118.897 8.74414 119.093 8.34538 119.349 8.0127C119.608 7.68001 119.921 7.42253 120.285 7.24023C120.654 7.05794 121.069 6.9668 121.529 6.9668C122.017 6.9668 122.427 7.05566 122.76 7.2334C123.097 7.41113 123.375 7.66406 123.594 7.99219C123.817 8.32031 123.99 8.70996 124.113 9.16113C124.241 9.60775 124.339 10.0999 124.407 10.6377V11.0273C124.343 11.5514 124.241 12.0322 124.1 12.4697C123.963 12.9072 123.781 13.29 123.553 13.6182C123.325 13.9417 123.042 14.1924 122.705 14.3701C122.368 14.5479 121.971 14.6367 121.516 14.6367C121.06 14.6367 120.65 14.5433 120.285 14.3564C119.921 14.1696 119.608 13.9076 119.349 13.5703C119.093 13.2331 118.897 12.8366 118.761 12.3809C118.624 11.9251 118.556 11.4284 118.556 10.8906ZM120.36 10.7471V10.8906C120.36 11.2096 120.392 11.5081 120.456 11.7861C120.52 12.0641 120.618 12.3102 120.75 12.5244C120.882 12.734 121.048 12.8981 121.249 13.0166C121.45 13.1351 121.689 13.1943 121.967 13.1943C122.34 13.1943 122.646 13.1169 122.883 12.9619C123.124 12.8024 123.307 12.5859 123.43 12.3125C123.557 12.0345 123.639 11.7223 123.676 11.376V10.3027C123.653 10.0293 123.603 9.77637 123.525 9.54395C123.452 9.31152 123.35 9.111 123.218 8.94238C123.086 8.77376 122.917 8.6416 122.712 8.5459C122.507 8.4502 122.263 8.40234 121.98 8.40234C121.707 8.40234 121.468 8.46387 121.263 8.58691C121.058 8.7054 120.889 8.87174 120.757 9.08594C120.625 9.30013 120.524 9.5485 120.456 9.83105C120.392 10.1136 120.36 10.4189 120.36 10.7471ZM128.584 4V14.5H126.773V4H128.584ZM133.479 14.6367C132.919 14.6367 132.415 14.5456 131.969 14.3633C131.522 14.181 131.141 13.9281 130.827 13.6045C130.517 13.2764 130.278 12.8958 130.109 12.4629C129.945 12.0254 129.863 11.556 129.863 11.0547V10.7812C129.863 10.2116 129.945 9.69434 130.109 9.22949C130.273 8.76009 130.506 8.35677 130.806 8.01953C131.107 7.68229 131.467 7.42253 131.886 7.24023C132.306 7.05794 132.768 6.9668 133.274 6.9668C133.798 6.9668 134.261 7.05566 134.662 7.2334C135.063 7.40658 135.398 7.65267 135.667 7.97168C135.936 8.29069 136.138 8.6735 136.275 9.12012C136.412 9.56217 136.48 10.0521 136.48 10.5898V11.3486H130.683V10.1045H134.703V9.96777C134.694 9.68066 134.639 9.41862 134.539 9.18164C134.439 8.9401 134.284 8.7487 134.074 8.60742C133.864 8.46159 133.593 8.38867 133.261 8.38867C132.992 8.38867 132.757 8.44792 132.556 8.56641C132.36 8.68034 132.196 8.8444 132.064 9.05859C131.937 9.26823 131.841 9.51888 131.777 9.81055C131.713 10.1022 131.681 10.4258 131.681 10.7812V11.0547C131.681 11.3646 131.722 11.6517 131.804 11.916C131.891 12.1803 132.016 12.4105 132.18 12.6064C132.349 12.7979 132.55 12.9482 132.782 13.0576C133.019 13.1624 133.288 13.2148 133.589 13.2148C133.967 13.2148 134.309 13.1419 134.614 12.9961C134.924 12.8457 135.193 12.6247 135.421 12.333L136.33 13.2764C136.175 13.5042 135.965 13.723 135.701 13.9326C135.441 14.1423 135.127 14.3132 134.758 14.4453C134.388 14.5729 133.962 14.6367 133.479 14.6367Z" fill="black"/>
</svg>
