<svg width="151" height="18" viewBox="0 0 151 18" fill="none" xmlns="http://www.w3.org/2000/svg">
<path d="M16.5046 7.36788H15.8333V7.33329H8.33333V10.6666H13.0429C12.3558 12.607 10.5096 14 8.33333 14C5.57208 14 3.33333 11.7612 3.33333 8.99996C3.33333 6.23871 5.57208 3.99996 8.33333 3.99996C9.60792 3.99996 10.7675 4.48079 11.6504 5.26621L14.0075 2.90913C12.5192 1.52204 10.5283 0.666626 8.33333 0.666626C3.73125 0.666626 0 4.39788 0 8.99996C0 13.602 3.73125 17.3333 8.33333 17.3333C12.9354 17.3333 16.6667 13.602 16.6667 8.99996C16.6667 8.44121 16.6092 7.89579 16.5046 7.36788Z" fill="#FBC02D"/>
<path d="M0.960815 5.12121L3.69873 7.12913C4.43957 5.29496 6.23373 3.99996 8.33332 3.99996C9.6079 3.99996 10.7675 4.48079 11.6504 5.26621L14.0075 2.90913C12.5191 1.52204 10.5283 0.666626 8.33332 0.666626C5.13248 0.666626 2.35665 2.47371 0.960815 5.12121Z" fill="#E53935"/>
<path d="M8.33342 17.3334C10.4859 17.3334 12.4418 16.5096 13.9205 15.17L11.3413 12.9875C10.5047 13.6213 9.46467 14 8.33342 14C6.16592 14 4.32551 12.618 3.63217 10.6892L0.914673 12.783C2.29384 15.4817 5.09467 17.3334 8.33342 17.3334Z" fill="#4CAF50"/>
<path d="M16.5046 7.36796L16.498 7.33337H15.8334H8.33337V10.6667H13.043C12.713 11.5988 12.1134 12.4025 11.34 12.988L11.3413 12.9871L13.9205 15.1696C13.738 15.3355 16.6667 13.1667 16.6667 9.00004C16.6667 8.44129 16.6092 7.89587 16.5046 7.36796Z" fill="#1565C0"/>
<path d="M32.4926 11.916C32.4926 11.7246 32.4629 11.5537 32.4037 11.4033C32.349 11.2484 32.2465 11.1094 32.0961 10.9863C31.9502 10.8587 31.7429 10.7357 31.474 10.6172C31.2097 10.4941 30.8679 10.3665 30.4486 10.2344C29.9838 10.0885 29.5508 9.92448 29.1498 9.74219C28.7487 9.5599 28.3955 9.34798 28.0902 9.10645C27.7894 8.86491 27.5547 8.58691 27.3861 8.27246C27.2175 7.95345 27.1332 7.58431 27.1332 7.16504C27.1332 6.75488 27.2198 6.38118 27.3929 6.04395C27.5707 5.70671 27.8213 5.41732 28.1449 5.17578C28.4685 4.92969 28.849 4.74056 29.2865 4.6084C29.7286 4.47624 30.2162 4.41016 30.7494 4.41016C31.4877 4.41016 32.1257 4.5446 32.6635 4.81348C33.2058 5.08236 33.625 5.44694 33.9213 5.90723C34.2175 6.36751 34.3656 6.88477 34.3656 7.45898H32.4926C32.4926 7.14909 32.4265 6.87565 32.2943 6.63867C32.1667 6.40169 31.9707 6.21484 31.7064 6.07812C31.4467 5.94141 31.1185 5.87305 30.722 5.87305C30.3392 5.87305 30.0202 5.93001 29.765 6.04395C29.5144 6.15788 29.3252 6.31283 29.1976 6.50879C29.0746 6.70475 29.0131 6.9235 29.0131 7.16504C29.0131 7.34733 29.0564 7.51139 29.1429 7.65723C29.2295 7.7985 29.3594 7.93294 29.5326 8.06055C29.7058 8.18359 29.92 8.2998 30.1752 8.40918C30.4349 8.514 30.7357 8.61882 31.0775 8.72363C31.6244 8.8877 32.1029 9.06999 32.5131 9.27051C32.9278 9.47103 33.2719 9.69889 33.5453 9.9541C33.8233 10.2093 34.0306 10.4964 34.1674 10.8154C34.3086 11.1344 34.3793 11.4967 34.3793 11.9023C34.3793 12.3307 34.295 12.7135 34.1263 13.0508C33.9577 13.388 33.7162 13.6751 33.4017 13.9121C33.0873 14.1491 32.709 14.3291 32.267 14.4521C31.8295 14.5752 31.3396 14.6367 30.7972 14.6367C30.3142 14.6367 29.8357 14.5729 29.3617 14.4453C28.8923 14.3132 28.4662 14.1172 28.0834 13.8574C27.7006 13.5931 27.3952 13.2604 27.1674 12.8594C26.9395 12.4538 26.8256 11.9798 26.8256 11.4375H28.7123C28.7123 11.752 28.7624 12.0208 28.8627 12.2441C28.9675 12.4629 29.1133 12.6429 29.3002 12.7842C29.4916 12.9209 29.7149 13.0212 29.9701 13.085C30.2253 13.1488 30.501 13.1807 30.7972 13.1807C31.1801 13.1807 31.4945 13.1283 31.7406 13.0234C31.9913 12.9141 32.1781 12.7637 32.3011 12.5723C32.4288 12.3809 32.4926 12.1621 32.4926 11.916ZM37.4558 7.10352V14.5H35.6443V7.10352H37.4558ZM35.5213 5.16895C35.5213 4.90007 35.6124 4.67676 35.7947 4.49902C35.9816 4.32129 36.2322 4.23242 36.5467 4.23242C36.8611 4.23242 37.1095 4.32129 37.2918 4.49902C37.4786 4.67676 37.572 4.90007 37.572 5.16895C37.572 5.43327 37.4786 5.6543 37.2918 5.83203C37.1095 6.00977 36.8611 6.09863 36.5467 6.09863C36.2322 6.09863 35.9816 6.00977 35.7947 5.83203C35.6124 5.6543 35.5213 5.43327 35.5213 5.16895ZM43.7316 7.10352H45.3722V14.2744C45.3722 14.9443 45.2264 15.5117 44.9347 15.9766C44.6476 16.446 44.2443 16.8014 43.7248 17.043C43.2052 17.2891 42.6014 17.4121 41.9133 17.4121C41.617 17.4121 41.2957 17.3711 40.9494 17.2891C40.6076 17.207 40.2772 17.0771 39.9582 16.8994C39.6437 16.7262 39.3817 16.5007 39.172 16.2227L39.9855 15.1562C40.2316 15.4434 40.5096 15.6598 40.8195 15.8057C41.1294 15.9561 41.4644 16.0312 41.8244 16.0312C42.189 16.0312 42.4989 15.9629 42.7541 15.8262C43.0138 15.694 43.2121 15.498 43.3488 15.2383C43.4901 14.9831 43.5607 14.6686 43.5607 14.2949V8.79199L43.7316 7.10352ZM38.7345 10.8906V10.7471C38.7345 10.182 38.8029 9.66927 38.9396 9.20898C39.0763 8.74414 39.2723 8.34538 39.5275 8.0127C39.7873 7.68001 40.0995 7.42253 40.464 7.24023C40.8332 7.05794 41.2479 6.9668 41.7082 6.9668C42.1958 6.9668 42.606 7.05566 42.9386 7.2334C43.2759 7.41113 43.5539 7.66406 43.7726 7.99219C43.9959 8.32031 44.1691 8.70996 44.2922 9.16113C44.4198 9.60775 44.5177 10.0999 44.5861 10.6377V11.0273C44.5223 11.5514 44.4198 12.0322 44.2785 12.4697C44.1418 12.9072 43.9595 13.29 43.7316 13.6182C43.5038 13.9417 43.2212 14.1924 42.884 14.3701C42.5467 14.5479 42.1502 14.6367 41.6945 14.6367C41.2388 14.6367 40.8286 14.5433 40.464 14.3564C40.0995 14.1696 39.7873 13.9076 39.5275 13.5703C39.2723 13.2331 39.0763 12.8366 38.9396 12.3809C38.8029 11.9251 38.7345 11.4284 38.7345 10.8906ZM40.5392 10.7471V10.8906C40.5392 11.2096 40.5711 11.5081 40.6349 11.7861C40.6987 12.0641 40.7967 12.3102 40.9289 12.5244C41.061 12.734 41.2274 12.8981 41.4279 13.0166C41.6284 13.1351 41.8677 13.1943 42.1457 13.1943C42.5194 13.1943 42.8247 13.1169 43.0617 12.9619C43.3032 12.8024 43.4855 12.5859 43.6086 12.3125C43.7362 12.0345 43.8182 11.7223 43.8547 11.376V10.3027C43.8319 10.0293 43.7817 9.77637 43.7043 9.54395C43.6314 9.31152 43.5288 9.111 43.3967 8.94238C43.2645 8.77376 43.0959 8.6416 42.8908 8.5459C42.6857 8.4502 42.4419 8.40234 42.1594 8.40234C41.8859 8.40234 41.6467 8.46387 41.4416 8.58691C41.2365 8.7054 41.0679 8.87174 40.9357 9.08594C40.8036 9.30013 40.7033 9.5485 40.6349 9.83105C40.5711 10.1136 40.5392 10.4189 40.5392 10.7471ZM48.6197 8.68262V14.5H46.815V7.10352H48.5103L48.6197 8.68262ZM48.3326 10.5352H47.7994C47.8039 9.9974 47.8769 9.50977 48.0181 9.07227C48.1594 8.63477 48.3577 8.25879 48.6129 7.94434C48.8726 7.62988 49.1802 7.38835 49.5357 7.21973C49.8912 7.05111 50.2877 6.9668 50.7252 6.9668C51.0806 6.9668 51.4019 7.01693 51.689 7.11719C51.9761 7.21745 52.2222 7.37695 52.4273 7.5957C52.637 7.81445 52.7965 8.10156 52.9058 8.45703C53.0198 8.80794 53.0767 9.24089 53.0767 9.75586V14.5H51.2584V9.74219C51.2584 9.40495 51.2082 9.13835 51.108 8.94238C51.0123 8.74642 50.871 8.60742 50.6842 8.52539C50.5019 8.44336 50.2763 8.40234 50.0074 8.40234C49.7294 8.40234 49.4856 8.45931 49.276 8.57324C49.0709 8.68262 48.8977 8.83529 48.7564 9.03125C48.6197 9.22721 48.5149 9.4528 48.442 9.70801C48.3691 9.96322 48.3326 10.2389 48.3326 10.5352ZM63.5297 4.54688H65.4095V11.1572C65.4095 11.9183 65.2455 12.5586 64.9174 13.0781C64.5892 13.5931 64.1426 13.9827 63.5775 14.2471C63.0124 14.5068 62.3698 14.6367 61.6498 14.6367C60.9206 14.6367 60.2712 14.5068 59.7015 14.2471C59.1319 13.9827 58.6853 13.5931 58.3617 13.0781C58.0381 12.5586 57.8763 11.9183 57.8763 11.1572V4.54688H59.7562V11.1572C59.7562 11.6221 59.8337 12.0026 59.9886 12.2988C60.1436 12.5905 60.3623 12.807 60.6449 12.9482C60.9274 13.0895 61.2624 13.1602 61.6498 13.1602C62.0417 13.1602 62.3767 13.0895 62.6547 12.9482C62.9372 12.807 63.1537 12.5905 63.3041 12.2988C63.4545 12.0026 63.5297 11.6221 63.5297 11.1572V4.54688ZM68.7117 8.52539V17.3438H66.9002V7.10352H68.575L68.7117 8.52539ZM73.4627 10.7266V10.8701C73.4627 11.4079 73.3989 11.9069 73.2713 12.3672C73.1482 12.8229 72.9659 13.2217 72.7244 13.5635C72.4829 13.9007 72.1821 14.165 71.822 14.3564C71.4666 14.5433 71.0564 14.6367 70.5916 14.6367C70.1358 14.6367 69.7394 14.5501 69.4021 14.377C69.0649 14.1992 68.7801 13.9486 68.5476 13.625C68.3152 13.3014 68.1284 12.9255 67.9871 12.4971C67.8504 12.0641 67.7478 11.5924 67.6795 11.082V10.624C67.7478 10.0817 67.8504 9.58952 67.9871 9.14746C68.1284 8.70085 68.3152 8.31576 68.5476 7.99219C68.7801 7.66406 69.0626 7.41113 69.3953 7.2334C69.7325 7.05566 70.1267 6.9668 70.5779 6.9668C71.0473 6.9668 71.4597 7.05566 71.8152 7.2334C72.1752 7.41113 72.4783 7.66634 72.7244 7.99902C72.9705 8.33171 73.1551 8.72819 73.2781 9.18848C73.4011 9.64876 73.4627 10.1615 73.4627 10.7266ZM71.6511 10.8701V10.7266C71.6511 10.3984 71.6215 10.0954 71.5623 9.81738C71.503 9.53483 71.4119 9.28874 71.2888 9.0791C71.1658 8.86491 71.0063 8.69857 70.8103 8.58008C70.6144 8.46159 70.3774 8.40234 70.0994 8.40234C69.8214 8.40234 69.5821 8.44792 69.3816 8.53906C69.1811 8.63021 69.017 8.76009 68.8894 8.92871C68.7618 9.09733 68.6616 9.29785 68.5886 9.53027C68.5203 9.75814 68.4747 10.0111 68.4519 10.2891V11.4238C68.4929 11.7611 68.5727 12.0641 68.6912 12.333C68.8097 12.6019 68.9829 12.8161 69.2107 12.9756C69.4431 13.1351 69.7439 13.2148 70.1131 13.2148C70.3911 13.2148 70.628 13.1533 70.824 13.0303C71.02 12.9072 71.1795 12.7386 71.3025 12.5244C71.4256 12.3057 71.5144 12.055 71.5691 11.7725C71.6238 11.4899 71.6511 11.1891 71.6511 10.8701ZM80.026 12.7227L81.6461 7.10352H82.7945L82.4527 9.04492L80.8189 14.5H79.8277L80.026 12.7227ZM79.1304 7.10352L80.3472 12.7363L80.4566 14.5H79.315L77.3736 7.10352H79.1304ZM84.2984 12.6543L85.4879 7.10352H87.2379L85.3101 14.5H84.1685L84.2984 12.6543ZM82.9722 7.10352L84.5787 12.668L84.7906 14.5H83.7994L82.1519 9.04492L81.817 7.10352H82.9722ZM90.0683 7.10352V14.5H88.2568V7.10352H90.0683ZM88.1338 5.16895C88.1338 4.90007 88.2249 4.67676 88.4072 4.49902C88.5941 4.32129 88.8447 4.23242 89.1592 4.23242C89.4736 4.23242 89.722 4.32129 89.9043 4.49902C90.0911 4.67676 90.1845 4.90007 90.1845 5.16895C90.1845 5.43327 90.0911 5.6543 89.9043 5.83203C89.722 6.00977 89.4736 6.09863 89.1592 6.09863C88.8447 6.09863 88.5941 6.00977 88.4072 5.83203C88.2249 5.6543 88.1338 5.43327 88.1338 5.16895ZM95.141 7.10352V8.40234H90.9027V7.10352H95.141ZM92.0375 5.28516H93.849V12.3672C93.849 12.5859 93.8786 12.7546 93.9379 12.873C93.9971 12.9915 94.086 13.0713 94.2045 13.1123C94.323 13.1533 94.4642 13.1738 94.6283 13.1738C94.7468 13.1738 94.8562 13.167 94.9564 13.1533C95.0567 13.1396 95.141 13.126 95.2094 13.1123L95.2162 14.4658C95.0658 14.516 94.8949 14.557 94.7035 14.5889C94.5166 14.6208 94.3047 14.6367 94.0677 14.6367C93.6622 14.6367 93.3067 14.5684 93.0013 14.4316C92.696 14.2904 92.459 14.0648 92.2904 13.7549C92.1218 13.4404 92.0375 13.0257 92.0375 12.5107V5.28516ZM97.9646 4V14.5H96.1531V4H97.9646ZM97.6775 10.5352H97.1443C97.1443 10.0202 97.2127 9.54622 97.3494 9.11328C97.4861 8.68034 97.6798 8.30436 97.9304 7.98535C98.1811 7.66178 98.4796 7.41113 98.826 7.2334C99.1769 7.05566 99.5642 6.9668 99.9881 6.9668C100.353 6.9668 100.683 7.01921 100.979 7.12402C101.28 7.22428 101.538 7.38607 101.752 7.60938C101.966 7.83268 102.13 8.12435 102.244 8.48438C102.362 8.83984 102.422 9.27279 102.422 9.7832V14.5H100.603V9.76953C100.603 9.42773 100.553 9.15885 100.453 8.96289C100.353 8.76237 100.209 8.61882 100.022 8.53223C99.8399 8.44564 99.6144 8.40234 99.3455 8.40234C99.0538 8.40234 98.8032 8.45931 98.5935 8.57324C98.3839 8.68262 98.2107 8.83529 98.074 9.03125C97.9418 9.22721 97.8416 9.4528 97.7732 9.70801C97.7094 9.96322 97.6775 10.2389 97.6775 10.5352ZM115.103 9.35254V13.2285C114.957 13.4154 114.727 13.6182 114.413 13.8369C114.103 14.0557 113.697 14.2448 113.196 14.4043C112.695 14.5592 112.079 14.6367 111.35 14.6367C110.717 14.6367 110.138 14.5319 109.614 14.3223C109.09 14.1081 108.639 13.7959 108.26 13.3857C107.882 12.9756 107.59 12.4743 107.385 11.8818C107.18 11.2894 107.078 10.6126 107.078 9.85156V9.19531C107.078 8.43424 107.173 7.75749 107.365 7.16504C107.561 6.57259 107.839 6.07129 108.199 5.66113C108.563 5.25098 108.999 4.9388 109.504 4.72461C110.015 4.51042 110.585 4.40332 111.213 4.40332C112.057 4.40332 112.749 4.54232 113.292 4.82031C113.838 5.09831 114.258 5.48112 114.549 5.96875C114.841 6.45182 115.023 7.00781 115.096 7.63672H113.264C113.214 7.29036 113.114 6.9873 112.963 6.72754C112.813 6.46322 112.599 6.25814 112.321 6.1123C112.047 5.96191 111.692 5.88672 111.254 5.88672C110.885 5.88672 110.559 5.95964 110.277 6.10547C109.994 6.2513 109.757 6.46322 109.566 6.74121C109.375 7.01921 109.229 7.36328 109.128 7.77344C109.033 8.18359 108.985 8.65299 108.985 9.18164V9.85156C108.985 10.3848 109.04 10.8587 109.149 11.2734C109.258 11.6836 109.416 12.0299 109.621 12.3125C109.83 12.5905 110.088 12.8024 110.393 12.9482C110.703 13.0895 111.054 13.1602 111.446 13.1602C111.801 13.1602 112.095 13.1305 112.328 13.0713C112.565 13.0075 112.754 12.9323 112.895 12.8457C113.036 12.7591 113.146 12.6748 113.223 12.5928V10.7266H111.248V9.35254H115.103ZM116.272 10.877V10.7334C116.272 10.1911 116.35 9.69206 116.505 9.23633C116.66 8.77604 116.885 8.37728 117.182 8.04004C117.478 7.7028 117.84 7.44076 118.269 7.25391C118.697 7.0625 119.185 6.9668 119.731 6.9668C120.287 6.9668 120.78 7.0625 121.208 7.25391C121.641 7.44076 122.006 7.7028 122.302 8.04004C122.598 8.37728 122.824 8.77604 122.978 9.23633C123.133 9.69206 123.211 10.1911 123.211 10.7334V10.877C123.211 11.4147 123.133 11.9137 122.978 12.374C122.824 12.8298 122.598 13.2285 122.302 13.5703C122.006 13.9076 121.643 14.1696 121.215 14.3564C120.786 14.5433 120.297 14.6367 119.745 14.6367C119.198 14.6367 118.708 14.5433 118.275 14.3564C117.842 14.1696 117.478 13.9076 117.182 13.5703C116.885 13.2285 116.66 12.8298 116.505 12.374C116.35 11.9137 116.272 11.4147 116.272 10.877ZM118.077 10.7334V10.877C118.077 11.2005 118.109 11.5036 118.173 11.7861C118.237 12.0687 118.335 12.3171 118.467 12.5312C118.599 12.7454 118.77 12.9141 118.979 13.0371C119.194 13.1556 119.449 13.2148 119.745 13.2148C120.037 13.2148 120.287 13.1556 120.497 13.0371C120.707 12.9141 120.878 12.7454 121.01 12.5312C121.146 12.3171 121.247 12.0687 121.311 11.7861C121.374 11.5036 121.406 11.2005 121.406 10.877V10.7334C121.406 10.4144 121.374 10.1159 121.311 9.83789C121.247 9.55534 121.146 9.30697 121.01 9.09277C120.878 8.87402 120.704 8.70312 120.49 8.58008C120.281 8.45247 120.028 8.38867 119.731 8.38867C119.44 8.38867 119.189 8.45247 118.979 8.58008C118.77 8.70312 118.599 8.87402 118.467 9.09277C118.335 9.30697 118.237 9.55534 118.173 9.83789C118.109 10.1159 118.077 10.4144 118.077 10.7334ZM124.052 10.877V10.7334C124.052 10.1911 124.13 9.69206 124.285 9.23633C124.439 8.77604 124.665 8.37728 124.961 8.04004C125.258 7.7028 125.62 7.44076 126.048 7.25391C126.477 7.0625 126.964 6.9668 127.511 6.9668C128.067 6.9668 128.559 7.0625 128.988 7.25391C129.421 7.44076 129.785 7.7028 130.081 8.04004C130.378 8.37728 130.603 8.77604 130.758 9.23633C130.913 9.69206 130.991 10.1911 130.991 10.7334V10.877C130.991 11.4147 130.913 11.9137 130.758 12.374C130.603 12.8298 130.378 13.2285 130.081 13.5703C129.785 13.9076 129.423 14.1696 128.995 14.3564C128.566 14.5433 128.076 14.6367 127.525 14.6367C126.978 14.6367 126.488 14.5433 126.055 14.3564C125.622 14.1696 125.258 13.9076 124.961 13.5703C124.665 13.2285 124.439 12.8298 124.285 12.374C124.13 11.9137 124.052 11.4147 124.052 10.877ZM125.857 10.7334V10.877C125.857 11.2005 125.889 11.5036 125.953 11.7861C126.016 12.0687 126.114 12.3171 126.246 12.5312C126.379 12.7454 126.55 12.9141 126.759 13.0371C126.973 13.1556 127.229 13.2148 127.525 13.2148C127.816 13.2148 128.067 13.1556 128.277 13.0371C128.486 12.9141 128.657 12.7454 128.789 12.5312C128.926 12.3171 129.026 12.0687 129.09 11.7861C129.154 11.5036 129.186 11.2005 129.186 10.877V10.7334C129.186 10.4144 129.154 10.1159 129.09 9.83789C129.026 9.55534 128.926 9.30697 128.789 9.09277C128.657 8.87402 128.484 8.70312 128.27 8.58008C128.06 8.45247 127.807 8.38867 127.511 8.38867C127.219 8.38867 126.969 8.45247 126.759 8.58008C126.55 8.70312 126.379 8.87402 126.246 9.09277C126.114 9.30697 126.016 9.55534 125.953 9.83789C125.889 10.1159 125.857 10.4144 125.857 10.7334ZM136.856 7.10352H138.497V14.2744C138.497 14.9443 138.351 15.5117 138.059 15.9766C137.772 16.446 137.369 16.8014 136.849 17.043C136.33 17.2891 135.726 17.4121 135.038 17.4121C134.742 17.4121 134.42 17.3711 134.074 17.2891C133.732 17.207 133.402 17.0771 133.083 16.8994C132.768 16.7262 132.506 16.5007 132.297 16.2227L133.11 15.1562C133.356 15.4434 133.634 15.6598 133.944 15.8057C134.254 15.9561 134.589 16.0312 134.949 16.0312C135.314 16.0312 135.623 15.9629 135.879 15.8262C136.138 15.694 136.337 15.498 136.473 15.2383C136.615 14.9831 136.685 14.6686 136.685 14.2949V8.79199L136.856 7.10352ZM131.859 10.8906V10.7471C131.859 10.182 131.928 9.66927 132.064 9.20898C132.201 8.74414 132.397 8.34538 132.652 8.0127C132.912 7.68001 133.224 7.42253 133.589 7.24023C133.958 7.05794 134.373 6.9668 134.833 6.9668C135.32 6.9668 135.731 7.05566 136.063 7.2334C136.4 7.41113 136.678 7.66406 136.897 7.99219C137.121 8.32031 137.294 8.70996 137.417 9.16113C137.544 9.60775 137.642 10.0999 137.711 10.6377V11.0273C137.647 11.5514 137.544 12.0322 137.403 12.4697C137.266 12.9072 137.084 13.29 136.856 13.6182C136.628 13.9417 136.346 14.1924 136.009 14.3701C135.671 14.5479 135.275 14.6367 134.819 14.6367C134.363 14.6367 133.953 14.5433 133.589 14.3564C133.224 14.1696 132.912 13.9076 132.652 13.5703C132.397 13.2331 132.201 12.8366 132.064 12.3809C131.928 11.9251 131.859 11.4284 131.859 10.8906ZM133.664 10.7471V10.8906C133.664 11.2096 133.696 11.5081 133.76 11.7861C133.823 12.0641 133.921 12.3102 134.053 12.5244C134.186 12.734 134.352 12.8981 134.553 13.0166C134.753 13.1351 134.992 13.1943 135.27 13.1943C135.644 13.1943 135.949 13.1169 136.186 12.9619C136.428 12.8024 136.61 12.5859 136.733 12.3125C136.861 12.0345 136.943 11.7223 136.979 11.376V10.3027C136.956 10.0293 136.906 9.77637 136.829 9.54395C136.756 9.31152 136.653 9.111 136.521 8.94238C136.389 8.77376 136.22 8.6416 136.015 8.5459C135.81 8.4502 135.567 8.40234 135.284 8.40234C135.011 8.40234 134.771 8.46387 134.566 8.58691C134.361 8.7054 134.192 8.87174 134.06 9.08594C133.928 9.30013 133.828 9.5485 133.76 9.83105C133.696 10.1136 133.664 10.4189 133.664 10.7471ZM141.888 4V14.5H140.076V4H141.888ZM146.783 14.6367C146.222 14.6367 145.719 14.5456 145.272 14.3633C144.825 14.181 144.445 13.9281 144.13 13.6045C143.821 13.2764 143.581 12.8958 143.413 12.4629C143.249 12.0254 143.167 11.556 143.167 11.0547V10.7812C143.167 10.2116 143.249 9.69434 143.413 9.22949C143.577 8.76009 143.809 8.35677 144.11 8.01953C144.411 7.68229 144.771 7.42253 145.19 7.24023C145.609 7.05794 146.072 6.9668 146.578 6.9668C147.102 6.9668 147.564 7.05566 147.965 7.2334C148.366 7.40658 148.701 7.65267 148.97 7.97168C149.239 8.29069 149.442 8.6735 149.579 9.12012C149.715 9.56217 149.784 10.0521 149.784 10.5898V11.3486H143.987V10.1045H148.006V9.96777C147.997 9.68066 147.943 9.41862 147.842 9.18164C147.742 8.9401 147.587 8.7487 147.378 8.60742C147.168 8.46159 146.897 8.38867 146.564 8.38867C146.295 8.38867 146.06 8.44792 145.86 8.56641C145.664 8.68034 145.5 8.8444 145.368 9.05859C145.24 9.26823 145.144 9.51888 145.081 9.81055C145.017 10.1022 144.985 10.4258 144.985 10.7812V11.0547C144.985 11.3646 145.026 11.6517 145.108 11.916C145.195 12.1803 145.32 12.4105 145.484 12.6064C145.653 12.7979 145.853 12.9482 146.086 13.0576C146.323 13.1624 146.591 13.2148 146.892 13.2148C147.27 13.2148 147.612 13.1419 147.918 12.9961C148.227 12.8457 148.496 12.6247 148.724 12.333L149.633 13.2764C149.478 13.5042 149.269 13.723 149.004 13.9326C148.745 14.1423 148.43 14.3132 148.061 14.4453C147.692 14.5729 147.266 14.6367 146.783 14.6367Z" fill="black"/>
</svg>
